# xmcd CD database file
#
# Track frame offsets:
#	150
#	12722
#	24077
#	36459
#	48604
#	61950
#	75904
#	88586
#	101599
#	114040
#	126934
#	139245
#	154003
#	167651
#	179428
#	192470
#	205987
#	218388
#
# Disc length: 3079 seconds
#
# Revision: 1
# Processed by: cddbd v1.5.2PL0 Copyright (c) Steve Scherf et al.
# Submitted via: CDex 1.51
#
DISCID=ef0c0512
DTITLE=Louis Jordan - Louis Jordan 1938-1950 Disc 1
DYEAR=1990
DGENRE=Jazz
TTITLE0=Swinging in a Coconut Tree
TTITLE1=At the Swing Cat's Ball
TTITLE2=June Tenth Jamboree
TTITLE3=Somebody Done Hoodooed the Hoodoo Man
TTITLE4=Pinetop's Boogie Woogie
TTITLE5=Mama, Mama Blues
TTITLE6=Knock Me a Kiss
TTITLE7=I'm Gonna Move to the Outskirts of Town
TTITLE8=Is You Is Or Is You Ain't My Baby
TTITLE9=Buzz me
TTITLE10=Caldonia Boogie
TTITLE11=Somebody Done Changed the Lock On My Door
TTITLE12=Salt Pork, West Virginia
TTITLE13=Petootie Pie
TTITLE14=Beware
TTITLE15=Don't Let the Sun Catch You Cryin'
TTITLE16=Choo-Choo Ch'Boogie
TTITLE17=Let the Good Times Roll
EXTD=YEAR: 1990
EXTT0=
EXTT1=
EXTT2=
EXTT3=
EXTT4=
EXTT5=
EXTT6=
EXTT7=
EXTT8=
EXTT9=
EXTT10=
EXTT11=
EXTT12=
EXTT13=
EXTT14=
EXTT15=
EXTT16=
EXTT17=
PLAYORDER=
